<svg xmlns="http://www.w3.org/2000/svg" viewBox="0 0 987.1784 223.6047">
  <g id="invert-rgb">
    <g>
      <g>
        <g>
          <path d="M118.7274,128.708c16.7947-2.8775,42.2253-7.7462,65.15-12.2364L210.4522,57.76l21.8951,49.0783c2.5626-.5158,4.0018-.806,4.0025-.8041,13.7146-2.6105,26.9716-5.3988,39.8017-8.1087,7.2888-1.54,14.3875-3.038,21.2943-4.4456L269.8667,37.2782A66.6149,66.6149,0,0,0,210.0642.01h0A66.615,66.615,0,0,0,150.3,37.2l-41.9245,85.1528C113.5594,125.525,117.2844,127.81,118.7274,128.708Z" style="fill: #43b6e8"/>
          <path d="M277.6021,153.4607c-2.745.5152-11.1388,2.2121-22.4308,4.5377L266.8294,184.13a66.615,66.615,0,0,0,60.8355,39.4748h33.6363l-38.8-79.0677C307.42,147.864,292.04,150.751,277.6021,153.4607Z" style="fill: #43b6e8"/>
          <path d="M85.2741,169.2737l-26.75,54.3312h33.892a66.6152,66.6152,0,0,0,60.6879-39.1458l3.0626-6.7663A284.3409,284.3409,0,0,0,85.2741,169.2737Z" style="fill: #43b6e8"/>
        </g>
        <path d="M317.4806,116.6858S142.1316,154.87,106.19,162.5639c12.04-.0283,25.8495,1.5153,54.3971,7.6562,32.5785-6.9137,105.7482-21.9231,115.6962-23.79,48.0083-9.01,113.1276-21.2331,129.9337-45.2943-27.7513-17.5128-72.4612-8.0666-128.5866,3.7879-12.6088,2.663-25.6346,5.4007-39.1235,7.9789l.002.0063c-57.83,11.2336-116.4028,22.8676-121.8944,23.75L21.8433,76.6448,9.8983,78.8005c3.37,6.023,42.7793,79.1179,42.7793,79.1179S22.493,171.2012,14.3912,174.9539c.47-.0465.9385-.0949,1.4079-.1422q6.78-1.1987,13.3212-2.3272C87.0588,160.8692,282.99,113.253,317.4806,116.6858Z" style="fill: #fff"/>
      </g>
      <path id="fullLogo" d="M489.2515,48.7332h18.8833l32.1129,69.2243H516.99l-6.828-14.5287H478.5827l-6.1878,14.5287H457.139ZM482.85,93.0667h22.4046L493.6258,67.9625Z" style="fill: #fff"/>
      <path id="fullLogo-2" data-name="fullLogo" d="M558.4948,48.7332h19.8437v57.1527h34.14v12.0716H558.4948Z" style="fill: #fff"/>
      <path id="fullLogo-3" data-name="fullLogo" d="M632.7748,48.7333h39.794c16.11,0,24.9644,2.671,29.232,7.585a13.5139,13.5139,0,0,1,3.3073,9.1872c0,9.4007-10.242,14.6354-18.5632,15.2762v.6408c8.5346.5341,21.55,5.5554,21.55,17.1991a15.7474,15.7474,0,0,1-4.3743,11.2169c-4.9073,5.0212-13.8693,8.119-27.9515,8.119H632.7748Zm35.8465,27.7752c10.242,0,14.2962-2.03,14.2962-8.1191,0-8.0119-6.5084-8.6526-17.71-8.6526H652.6185V76.5084Zm-1.3866,30.4455c10.3481,0,17.8163-.9608,17.8163-9.7207,0-6.9442-3.7341-9.9353-15.2565-9.9353h-17.176v19.656Z" style="fill: #fff"/>
      <path id="fullLogo-4" data-name="fullLogo" d="M751.3929,48.7333h18.8833l32.1125,69.2243H779.13l-6.8279-14.5287H740.7236l-6.1878,14.5287H719.2793Zm-6.4023,44.3335h22.4046L755.7667,67.9626Z" style="fill: #fff"/>
      <path id="fullLogo-5" data-name="fullLogo" d="M819.996,48.7333h23.2571l31.899,39.6329V48.7333h14.4039v69.2242H872.0588L834.2922,71.06v46.8972H819.996Z" style="fill: #fff"/>
      <path id="fullLogo-6" data-name="fullLogo" d="M935.648,91.7847,904.816,48.7334h24.432l20.4827,30.5528,19.6314-30.5528h17.8163L955.4927,91.7847v26.1729H935.648Z" style="fill: #fff"/>
      <path id="fullLogo-7" data-name="fullLogo" d="M478.171,174.3541v-34.45h3.473v34.45Z" style="fill: #43b6e8"/>
      <path id="fullLogo-8" data-name="fullLogo" d="M509.8027,174.6833l-15.9091-24.9565v24.6274h-3.4729V139.7156l1.1266-.1409,15.7681,24.7217V139.9038h3.5195v34.6851Z" style="fill: #43b6e8"/>
      <path id="fullLogo-9" data-name="fullLogo" d="M528.813,143.1465v31.2077H525.34V143.1465h-8.1651v-3.2427h19.7566v3.2427Z" style="fill: #43b6e8"/>
      <path id="fullLogo-10" data-name="fullLogo" d="M543.318,174.3542v-34.45h15.7681v3.2427H546.791v11.9851h11.2629v3.1961H546.791v12.7838h12.2951v3.2427Z" style="fill: #43b6e8"/>
      <path id="fullLogo-11" data-name="fullLogo" d="M582.0371,174.3542,575.0918,160.63c-.6105.0472-1.3608.0944-2.0178.0944-.7981,0-1.83-.0472-2.6749-.0944v13.7239h-3.4729V140.0919a39.55,39.55,0,0,1,5.8659-.47c7.9782,0,11.5449,4.8876,11.5449,10.5278,0,4.7-2.3,7.9427-6.0069,9.5405l7.6962,14.664ZM573.074,142.818a17.4781,17.4781,0,0,0-2.6749.1875v14.57a26.6771,26.6771,0,0,0,2.7687.141c5.0212,0,7.5086-2.585,7.5086-7.4732C580.6764,145.7316,577.9543,142.818,573.074,142.818Z" style="fill: #43b6e8"/>
      <path id="fullLogo-12" data-name="fullLogo" d="M611.3719,174.6833l-15.9091-24.9565v24.6274H591.99V139.7157l1.1265-.141,15.7676,24.7218V139.9038h3.52v34.6851Z" style="fill: #43b6e8"/>
      <path id="fullLogo-13" data-name="fullLogo" d="M638.3131,174.3542l-2.91-9.1176H624.5156l-2.9091,9.1176H618.04l11.4033-34.92H630.57l11.4039,34.92ZM629.96,147.4709l-4.4586,14.7106h8.9166Z" style="fill: #43b6e8"/>
      <path id="fullLogo-14" data-name="fullLogo" d="M654.8354,143.1465v31.2077h-3.4729V143.1465h-8.1652v-3.2427H662.954v3.2427Z" style="fill: #43b6e8"/>
      <path id="fullLogo-15" data-name="fullLogo" d="M669.5752,174.3542v-34.45h3.4729v34.45Z" style="fill: #43b6e8"/>
      <path id="fullLogo-16" data-name="fullLogo" d="M693.0412,174.8715c-7.5558,0-12.2957-8.3662-12.2957-17.7192s4.88-17.7651,12.5771-17.7651c7.5553,0,12.2952,8.2713,12.2952,17.6714C705.6178,166.4115,700.7375,174.8715,693.0412,174.8715Zm.14-32.3826c-5.1623,0-8.7756,6.11-8.7756,14.6168,0,8.4594,3.6133,14.7106,8.7756,14.7106s8.7289-6.2512,8.7289-14.7106C701.9106,148.5986,698.3439,142.4889,693.1817,142.4889Z" style="fill: #43b6e8"/>
      <path id="fullLogo-17" data-name="fullLogo" d="M732.4657,174.6833l-15.9085-24.9565v24.6274h-3.4729V139.7157l1.1266-.141,15.7681,24.7218V139.9039h3.519V174.589Z" style="fill: #43b6e8"/>
      <path id="fullLogo-18" data-name="fullLogo" d="M759.4081,174.3542l-2.9091-9.1176H745.6106l-2.9091,9.1176h-3.5673l11.4039-34.92h1.1266l11.4039,34.92Zm-8.3533-26.8833-4.458,14.7106h8.916Z" style="fill: #43b6e8"/>
      <path id="fullLogo-19" data-name="fullLogo" d="M768.75,174.3543v-34.45h3.4729v31.2077h11.7791v3.2427Z" style="fill: #43b6e8"/>
      <path id="fullLogo-20" data-name="fullLogo" d="M821.7381,174.3543l-2.91-9.1176H807.9406l-2.9091,9.1177h-3.5661l11.4028-34.9205h1.1265l11.4039,34.9205Zm-8.3533-26.8834-4.4591,14.7106h8.9171Z" style="fill: #43b6e8"/>
      <path id="fullLogo-21" data-name="fullLogo" d="M831.3157,174.3543v-34.45h3.4729v34.45Z" style="fill: #43b6e8"/>
      <path id="fullLogo-22" data-name="fullLogo" d="M858.6758,174.3543,851.731,160.63c-.611.0472-1.3613.0943-2.0184.0943-.7986,0-1.83-.0471-2.6743-.0943v13.7239h-3.473V140.092a39.531,39.531,0,0,1,5.8654-.47c7.9781,0,11.5443,4.8876,11.5443,10.5278,0,4.7-2.2992,7.9427-6.0069,9.5405l7.6962,14.664Zm-8.9632-31.5363a17.4761,17.4761,0,0,0-2.6743.1876v14.57a26.6558,26.6558,0,0,0,2.7676.141c5.0218,0,7.51-2.5851,7.51-7.4732C857.3156,145.7316,854.593,142.8181,849.7126,142.818Z" style="fill: #43b6e8"/>
      <path id="fullLogo-23" data-name="fullLogo" d="M874.777,162.0878a25.56,25.56,0,0,1-2.6755-.141v12.4075h-3.473V140.092a40.4127,40.4127,0,0,1,6.1485-.47c7.6962,0,11.2623,5.4048,11.2623,11.0916C886.0393,156.9177,882.1441,162.0878,874.777,162.0878Zm.2808-19.27a18.0376,18.0376,0,0,0-2.9563.1875v15.7917a26.3585,26.3585,0,0,0,2.7215.1882c5.0219,0,7.5558-3.3371,7.5558-8.1309C882.3788,146.2961,879.7505,142.8181,875.0578,142.8181Z" style="fill: #43b6e8"/>
      <path id="fullLogo-24" data-name="fullLogo" d="M903.5939,174.8715c-7.5558,0-12.2957-8.3662-12.2957-17.7191s4.88-17.7652,12.5765-17.7652c7.5558,0,12.2957,8.2713,12.2957,17.6714C916.17,166.4116,911.29,174.8715,903.5939,174.8715Zm.14-32.3825c-5.1622,0-8.7756,6.11-8.7756,14.6168,0,8.4594,3.6134,14.7106,8.7756,14.7106s8.7284-6.2512,8.7284-14.7106C912.4627,148.5986,908.8966,142.489,903.7343,142.489Z" style="fill: #43b6e8"/>
      <path id="fullLogo-25" data-name="fullLogo" d="M938.748,174.3543,931.8021,160.63c-.6088.0472-1.36.0944-2.0173.0944-.7975,0-1.8308-.0472-2.6755-.0944v13.7239h-3.4729V140.0921a39.5553,39.5553,0,0,1,5.8665-.47c7.9781,0,11.5454,4.8876,11.5454,10.5278,0,4.7-2.3,7.9427-6.0069,9.5405l7.6962,14.664Zm-8.9632-31.5362a17.4788,17.4788,0,0,0-2.6755.1876v14.57a26.7022,26.7022,0,0,0,2.77.1409c5.0207,0,7.5075-2.585,7.5075-7.4732C937.3867,145.7317,934.6651,142.8181,929.7848,142.8181Z" style="fill: #43b6e8"/>
      <path id="fullLogo-26" data-name="fullLogo" d="M958.1806,143.1466v31.2077h-3.473V143.1466h-8.1657v-3.2427h19.7572v3.2427Z" style="fill: #43b6e8"/>
    </g>
  </g>
</svg>
